<svg xmlns="http://www.w3.org/2000/svg" viewBox="0 0 1600 900" role="img" aria-label="Abstract directed link graph">
  <defs>
    <radialGradient id="nodeBlue" cx="35%" cy="30%" r="70%">
      <stop offset="0" stop-color="#93c5fd"/>
      <stop offset="1" stop-color="#2563eb"/>
    </radialGradient>
    <radialGradient id="nodeTeal" cx="35%" cy="30%" r="70%">
      <stop offset="0" stop-color="#99f6e4"/>
      <stop offset="1" stop-color="#0f766e"/>
    </radialGradient>
    <radialGradient id="nodeGold" cx="35%" cy="30%" r="70%">
      <stop offset="0" stop-color="#fde68a"/>
      <stop offset="1" stop-color="#a16207"/>
    </radialGradient>
    <radialGradient id="nodeRose" cx="35%" cy="30%" r="70%">
      <stop offset="0" stop-color="#fbcfe8"/>
      <stop offset="1" stop-color="#be123c"/>
    </radialGradient>
    <marker id="arrowHero" markerWidth="16" markerHeight="16" refX="13" refY="8" orient="auto">
      <path d="M2 2 L14 8 L2 14 Z" fill="#e2e8f0" opacity="0.72"/>
    </marker>
    <filter id="softShadow" x="-30%" y="-30%" width="160%" height="160%">
      <feDropShadow dx="0" dy="14" stdDeviation="18" flood-color="#020617" flood-opacity="0.35"/>
    </filter>
  </defs>
  <rect width="1600" height="900" fill="#0f172a"/>
  <path d="M0 655 C210 540 366 650 548 548 C745 438 830 176 1074 224 C1268 262 1346 442 1600 310 L1600 900 L0 900 Z" fill="#0f766e" opacity="0.24"/>
  <path d="M0 250 C188 134 318 284 510 194 C742 84 864 130 1045 324 C1214 505 1392 446 1600 342 L1600 0 L0 0 Z" fill="#be123c" opacity="0.2"/>
  <g fill="none" stroke="#e2e8f0" stroke-width="5" stroke-linecap="round" marker-end="url(#arrowHero)">
    <path d="M284 586 C420 458 512 390 650 328"/>
    <path d="M420 236 C510 250 580 270 650 328"/>
    <path d="M650 328 C792 360 878 448 996 564"/>
    <path d="M650 328 C832 236 1000 210 1166 228"/>
    <path d="M1166 228 C1224 332 1270 430 1298 548"/>
    <path d="M996 564 C1086 532 1184 530 1298 548"/>
    <path d="M420 236 C374 344 326 462 284 586"/>
    <path d="M996 564 C782 638 620 650 430 684"/>
    <path d="M1298 548 C1174 676 1028 734 862 742"/>
  </g>
  <g filter="url(#softShadow)">
    <circle cx="284" cy="586" r="76" fill="url(#nodeBlue)"/>
    <circle cx="420" cy="236" r="58" fill="url(#nodeTeal)"/>
    <circle cx="650" cy="328" r="96" fill="url(#nodeRose)"/>
    <circle cx="996" cy="564" r="72" fill="url(#nodeGold)"/>
    <circle cx="1166" cy="228" r="64" fill="url(#nodeBlue)"/>
    <circle cx="1298" cy="548" r="86" fill="url(#nodeTeal)"/>
    <circle cx="430" cy="684" r="48" fill="url(#nodeGold)"/>
    <circle cx="862" cy="742" r="52" fill="url(#nodeRose)"/>
  </g>
  <g fill="#ffffff" opacity="0.88" font-family="Inter, Arial, sans-serif" font-weight="800" text-anchor="middle">
    <text x="284" y="598" font-size="44">p</text>
    <text x="420" y="247" font-size="34">v</text>
    <text x="650" y="344" font-size="52">u</text>
    <text x="996" y="578" font-size="40">q</text>
    <text x="1166" y="241" font-size="36">a</text>
    <text x="1298" y="564" font-size="48">r</text>
    <text x="430" y="696" font-size="30">s</text>
    <text x="862" y="754" font-size="32">t</text>
  </g>
  <g opacity="0.2">
    <circle cx="117" cy="141" r="4" fill="#e2e8f0"/>
    <circle cx="201" cy="306" r="5" fill="#e2e8f0"/>
    <circle cx="520" cy="742" r="4" fill="#e2e8f0"/>
    <circle cx="775" cy="134" r="4" fill="#e2e8f0"/>
    <circle cx="917" cy="321" r="5" fill="#e2e8f0"/>
    <circle cx="1390" cy="288" r="5" fill="#e2e8f0"/>
    <circle cx="1486" cy="700" r="4" fill="#e2e8f0"/>
  </g>
</svg>
